<?xml version="1.0" encoding="utf-8"?>
<!-- Generator: Adobe Illustrator 22.1.0, SVG Export Plug-In . SVG Version: 6.00 Build 0)  -->
<svg version="1.1" id="Camada_1" xmlns="http://www.w3.org/2000/svg" xmlns:xlink="http://www.w3.org/1999/xlink" x="0px" y="0px"
	 viewBox="0 0 176 50" style="enable-background:new 0 0 176 50;" xml:space="preserve">
<style type="text/css">
	.st0{fill:#262323;}
	.st1{fill:#B6242A;}
</style>
<path class="st0" d="M14.5,18.3c3.7,0,5-2,5-4.6c0-2.4-1.4-4.1-4.3-4.1H5.5v8.7H14.5z M1.7,6.4h13.1c5.6,0,8.5,2.6,8.5,7.3
	c0,4.7-2.9,7.9-8.2,7.9H5.5v10.2H1.7V6.4z"/>
<path class="st0" d="M52.6,17.7c3.7,0,4.6-2.2,4.6-4c0-2.4-1.4-4.1-4.5-4.1H42.1v8.1H52.6z M38.3,6.4h15.7c5.1,0,6.9,3.5,6.9,6.8
	c0,3.1-1.5,5.4-4.3,6.2v0.1c2.3,0.3,3.6,2.4,3.7,5.4c0.2,4.7,0.4,6,1.2,6.9h-4C57,31,57,29.9,56.9,26.9c-0.3-4.5-1.8-5.9-4.9-5.9
	h-9.8v10.8h-3.8V6.4z"/>
<rect x="76.5" y="6.4" class="st0" width="3.8" height="25.4"/>
<polygon class="st0" points="122.6,6.4 127.8,6.4 127.8,31.8 124.1,31.8 124.1,10.7 124,10.7 114.1,31.8 110.8,31.8 100.9,11.1 
	100.9,11.1 100.9,31.8 97.1,31.8 97.1,6.4 102.4,6.4 112.4,27.4 "/>
<polygon class="st0" points="144.3,6.4 164.7,6.4 164.7,9.6 148.1,9.6 148.1,17 164.2,17 164.2,20.3 148.1,20.3 148.1,28.5 
	165.1,28.5 165.1,31.8 144.3,31.8 "/>
<path class="st1" d="M3.9,41h3.4c1.2,0,1.8-0.3,1.8-1.5c0-1.2-0.9-1.5-1.7-1.5H3.9V41z M1.8,36.3H8c2.5,0,3.3,1.5,3.3,3.1
	c0,1.5-1,3.1-3.2,3.1H3.9v3.9H1.8V36.3z"/>
<path class="st1" d="M24.3,40.8c1.2,0,1.8-0.4,1.8-1.5c0-1.1-0.7-1.4-1.8-1.4h-3.6v2.9H24.3z M18.6,36.3h6.3c2.6,0,3.4,1.2,3.4,2.8
	c0,1.3-0.7,2.1-1.7,2.4v0c1.2,0.2,1.5,1.3,1.5,2.7c0,0.5,0,1.6,0.4,2.1h-2.3c-0.1-0.3-0.2-0.8-0.2-1.5c0-1.4-0.2-2.5-1.7-2.5h-3.6v4
	h-2.1V36.3z"/>
<path class="st1" d="M45.1,41.4c0-2.2-1.4-3.8-3.7-3.8c-2.4,0-3.7,1.5-3.7,3.8c0,2.2,1.3,3.8,3.7,3.8C43.7,45.1,45.1,43.6,45.1,41.4
	 M35.5,41.4c0-2.8,1.7-5.3,5.9-5.3c4.2,0,5.9,2.5,5.9,5.3c0,2.8-1.7,5.3-5.9,5.3C37.1,46.7,35.5,44.2,35.5,41.4"/>
<path class="st1" d="M108,38.1h-3.3v2.7h3.3c1.1,0,1.7-0.3,1.7-1.4C109.7,38.4,109,38.1,108,38.1"/>
<path class="st1" d="M162.6,45.8h-8.1v-9.1h8v1.4h-6.1v2.3h5.8v1.4h-5.8v2.5h6.2V45.8z M146.7,45.8h-1.8l0.1-7.5h0l-3.4,7.5h-1.6
	l-3.4-7.5h0l0.1,7.5h-1.8v-9.1h2.8l3.2,7.1l3.2-7.1h2.8V45.8z M127.3,45.8h-8.1v-9.1h8v1.4h-6v2.3h5.8v1.4h-5.8v2.5h6.1V45.8z
	 M109.8,45.8c-0.1-0.2-0.2-0.7-0.2-1.4c0-1.3-0.2-2.2-1.6-2.2h-3.3v3.6h-1.9v-9.1h5.8c2.4,0,3.1,1.1,3.1,2.5c0,1.2-0.6,1.9-1.5,2.2
	v0c1.1,0.2,1.3,1.2,1.3,2.5c0,0.4,0,1.4,0.4,1.9H109.8z M95.9,38.1h-3.4v7.7h-2v-7.7H87v-1.4h8.8V38.1z M78.8,45.8l-2.5-3.3
	l-2.5,3.3h-2.4l3.8-4.7l-3.5-4.4h2.4l2.3,3.2l2.4-3.2h2.3L77.5,41l3.8,4.7H78.8z M65.1,45.8H57v-9.1h8v1.4h-6.1v2.3h5.8v1.4h-5.8
	v2.5h6.2V45.8z M54.5,47.3H165V35.1H54.5V47.3z M54.5,35.1v12.2"/>
<path class="st0" d="M170.6,2.7c2,0,3.7,1.6,3.7,3.7c0,2.1-1.7,3.7-3.7,3.7c-2,0-3.8-1.6-3.8-3.7C166.8,4.3,168.6,2.7,170.6,2.7
	 M170.6,9.6c1.7,0,3.1-1.4,3.1-3.2c0-1.8-1.3-3.2-3.1-3.2c-1.8,0-3.1,1.4-3.1,3.2C167.5,8.2,168.8,9.6,170.6,9.6 M169.1,4.2h1.7
	c1,0,1.5,0.4,1.5,1.2c0,0.8-0.5,1.1-1.1,1.2l1.2,1.9h-0.7l-1.2-1.9h-0.7v1.9h-0.7V4.2z M169.8,6.2h0.7c0.6,0,1.1,0,1.1-0.7
	c0-0.6-0.5-0.7-1-0.7h-0.9V6.2z"/>
</svg>
